<svg width="20" height="20" viewBox="0 0 20 20" fill="none" xmlns="http://www.w3.org/2000/svg">
<path fill-rule="evenodd" clip-rule="evenodd" d="M10.1968 20C10.1306 20 10.0644 20 9.99771 19.9997C8.43002 20.0035 6.98151 19.9636 5.57281 19.8779C4.28131 19.7993 3.10242 19.353 2.16339 18.5873C1.25732 17.8485 0.63858 16.8495 0.324402 15.6184C0.0509644 14.5466 0.0364685 13.4945 0.022583 12.4769C0.0125122 11.7468 0.00213623 10.8816 0 10.0018C0.00213623 9.1183 0.0125122 8.25313 0.022583 7.52299C0.0364685 6.50554 0.0509644 5.45344 0.324402 4.38151C0.63858 3.15043 1.25732 2.15144 2.16339 1.4126C3.10242 0.646917 4.28131 0.200597 5.57297 0.122014C6.98166 0.0364124 8.43048 -0.00356564 10.0015 0.000249067C11.5697 -0.00310787 13.0177 0.0364124 14.4264 0.122014C15.7179 0.200597 16.8968 0.646917 17.8358 1.4126C18.7421 2.15144 19.3607 3.15043 19.6748 4.38151C19.9483 5.45329 19.9628 6.50554 19.9767 7.52299C19.9867 8.25313 19.9973 9.1183 19.9992 9.99812V10.0018C19.9973 10.8816 19.9867 11.7468 19.9767 12.4769V12.4771C19.9628 13.4945 19.9484 14.5465 19.6748 15.6184C19.3607 16.8495 18.7421 17.8485 17.8358 18.5873C16.8968 19.353 15.7179 19.7993 14.4264 19.8779C13.0774 19.96 11.6916 20 10.1968 20ZM16.6667 4.66624C16.6667 5.40262 16.0697 5.99957 15.3333 5.99957C14.597 5.99957 14 5.40262 14 4.66624C14 3.92986 14.597 3.3329 15.3333 3.3329C16.0697 3.3329 16.6667 3.92986 16.6667 4.66624ZM12.6667 9.99957C12.6667 11.4723 11.4728 12.6662 10 12.6662C8.52724 12.6662 7.33333 11.4723 7.33333 9.99957C7.33333 8.52681 8.52724 7.3329 10 7.3329C11.4728 7.3329 12.6667 8.52681 12.6667 9.99957ZM14.6667 9.99957C14.6667 12.5769 12.5773 14.6662 10 14.6662C7.42267 14.6662 5.33333 12.5769 5.33333 9.99957C5.33333 7.42224 7.42267 5.3329 10 5.3329C12.5773 5.3329 14.6667 7.42224 14.6667 9.99957Z" fill="#B2B3B3"/>
</svg>
