<svg width="20" height="20" viewBox="0 0 20 20" fill="none" xmlns="http://www.w3.org/2000/svg">
<g clip-path="url(#clip0_1_1734)">
<path d="M19.6905 1.98685C19.4461 1.68808 19.0802 1.52344 18.6601 1.52344C18.4315 1.52344 18.1897 1.57166 17.941 1.66656L1.01126 8.1291C0.112824 8.47196 -0.0081778 8.98648 -0.000395858 9.26282C0.00738609 9.539 0.157379 10.0459 1.07382 10.3373C1.07931 10.3392 1.08481 10.3407 1.0903 10.3424L3.46456 11.0217L15.0276 5.11428C15.3157 4.96688 15.6688 5.08132 15.816 5.36955C15.9317 5.59599 15.8853 5.86211 15.7205 6.03728L15.721 6.03773L9.29187 12.8689L9.10846 13.6122L11.4043 15.4609L14.5857 18.0227C14.5885 18.0248 14.5912 18.0271 14.5941 18.0293C14.9442 18.3009 15.3265 18.4443 15.6999 18.4445C16.4296 18.4445 17.0105 17.9045 17.1797 17.0689L19.9536 3.37203C20.0648 2.82241 19.9715 2.33032 19.6905 1.98685V1.98685Z" fill="#B2B3B3"/>
<path d="M8.1911 12.4391C8.21445 12.3444 8.26144 12.254 8.33301 12.1779L12.5516 7.69531L4.72339 11.6946L6.50088 16.7781C6.6022 17.0677 6.75296 17.3143 6.93942 17.5073L8.1908 12.439L8.1911 12.4391Z" fill="#B2B3B3"/>
<path d="M8.03052 17.9778C8.45303 17.9743 8.86822 17.7961 9.23199 17.4611L10.5325 16.2636L8.79849 14.8674L8.03052 17.9778Z" fill="#B2B3B3"/>
</g>
<defs>
<clipPath id="clip0_1_1734">
<rect width="20" height="20" fill="white" transform="translate(-0.000732422)"/>
</clipPath>
</defs>
</svg>
