<svg width="20" height="20" viewBox="0 0 20 20" fill="none" xmlns="http://www.w3.org/2000/svg">
<path d="M18.7626 5.01531C17.6212 5.01531 16.5681 4.63719 15.7224 3.9993C14.7524 3.26805 14.0556 2.19539 13.8095 0.959062C13.7485 0.653593 13.7157 0.338359 13.7126 0.0153122H10.452V8.92469L10.4481 13.8048C10.4481 15.1095 9.59853 16.2157 8.42079 16.6048C8.079 16.7177 7.70986 16.7712 7.32548 16.7501C6.83486 16.7231 6.37509 16.5751 5.97548 16.336C5.12509 15.8274 4.54853 14.9048 4.5329 13.8493C4.50829 12.1997 5.84189 10.8548 7.49032 10.8548C7.81571 10.8548 8.12822 10.9079 8.42079 11.0044V8.56922V7.69383C8.1122 7.64813 7.79814 7.6243 7.48056 7.6243C5.67626 7.6243 3.98876 8.3743 2.78251 9.72547C1.87079 10.7466 1.32392 12.0493 1.23954 13.4153C1.129 15.2098 1.78564 16.9157 3.05907 18.1743C3.24618 18.3591 3.44267 18.5305 3.64814 18.6887C4.73993 19.529 6.0747 19.9845 7.48056 19.9845C7.79814 19.9845 8.1122 19.961 8.42079 19.9153C9.73407 19.7208 10.9458 19.1196 11.902 18.1743C13.077 17.013 13.7263 15.4712 13.7333 13.8302L13.7165 6.54266C14.277 6.97508 14.8899 7.33289 15.5477 7.61062C16.5708 8.04227 17.6556 8.26101 18.772 8.26062V5.89305V5.01453C18.7727 5.01531 18.7634 5.01531 18.7626 5.01531Z" fill="#B2B3B3"/>
</svg>
