<svg width="20" height="20" viewBox="0 0 20 20" fill="none" xmlns="http://www.w3.org/2000/svg">
<path fill-rule="evenodd" clip-rule="evenodd" d="M9.98993 0C12.65 0.00106812 15.1494 1.03256 17.0282 2.90436C18.9331 4.8024 19.9815 7.29218 19.9808 9.91501C19.9796 12.5565 18.9348 15.0444 17.0386 16.9205C15.1471 18.792 12.6437 19.8227 9.99008 19.8227H9.98611C8.42728 19.8221 6.88171 19.454 5.49652 18.756L0.0273132 20L1.21689 14.593C0.420074 13.1218 0.000305176 11.51 0 9.91226V9.91043V9.90738C0.00244141 7.26761 1.04675 4.77646 2.94128 2.90192C4.83246 1.03058 7.33582 0 9.98993 0ZM6.83363 5.5415H7.27156C7.43437 5.54822 7.61457 5.56104 7.78578 5.94037H7.78562C7.90367 6.20199 8.1011 6.6916 8.25708 7.07844C8.36966 7.35762 8.46064 7.58326 8.48463 7.63104C8.5417 7.74487 8.57984 7.87793 8.5037 8.02991C8.488 8.06119 8.47415 8.09005 8.46107 8.11732C8.41057 8.22257 8.37142 8.30418 8.28077 8.40985C8.16648 8.54276 8.02778 8.68222 7.92509 8.78415C7.8105 8.89783 7.69148 9.02112 7.82469 9.24893C7.95805 9.4769 8.42955 10.2469 9.10902 10.8506C9.84292 11.5028 10.4747 11.7797 10.7932 11.9193C10.8535 11.9457 10.9026 11.9672 10.939 11.9854C11.1676 12.0994 11.3009 12.0804 11.4342 11.9282C11.5675 11.7762 12.0163 11.2495 12.1687 11.0219C12.3211 10.7937 12.4734 10.8317 12.6829 10.9076C12.8823 10.98 13.9063 11.491 14.2018 11.6384C14.2168 11.6459 14.23 11.6525 14.241 11.658C14.2857 11.6803 14.3275 11.7003 14.3662 11.719C14.5254 11.7955 14.6331 11.8473 14.6791 11.9236C14.7362 12.0189 14.7362 12.4748 14.5457 13.0066C14.3553 13.5383 13.4222 14.0513 13.0032 14.0892C12.9629 14.0928 12.9229 14.0975 12.8817 14.1024C12.4946 14.1478 12.0058 14.2051 10.2611 13.5194C8.11414 12.6756 6.69872 10.5842 6.40652 10.1525C6.3826 10.1172 6.3662 10.093 6.35755 10.0815L6.35491 10.0779C6.23136 9.91331 5.42448 8.83827 5.42448 7.72595C5.42448 6.67707 5.94169 6.12722 6.17969 5.87419C6.19597 5.85689 6.21094 5.84098 6.22435 5.82639C6.4337 5.59857 6.68119 5.5415 6.83363 5.5415Z" fill="#286C2F"/>
</svg>
