<svg width="20" height="20" viewBox="0 0 20 20" fill="none" xmlns="http://www.w3.org/2000/svg">
<g clip-path="url(#clip0_1_599)">
<path d="M16.5958 10.8566C16.2725 10.4483 16.365 10.2666 16.5958 9.9016C16.6 9.89743 19.2692 6.2091 19.5442 4.95826L19.5458 4.95743C19.6825 4.5016 19.5458 4.1666 18.885 4.1666H16.6983C16.1417 4.1666 15.885 4.4541 15.7475 4.77576C15.7475 4.77576 14.6342 7.44076 13.0592 9.16826C12.5508 9.66743 12.3158 9.82743 12.0383 9.82743C11.9017 9.82743 11.6892 9.66743 11.6892 9.2116V4.95743C11.6892 4.41076 11.5333 4.1666 11.0725 4.1666H7.63417C7.285 4.1666 7.0775 4.4216 7.0775 4.6591C7.0775 5.17743 7.865 5.2966 7.94667 6.75493V9.9191C7.94667 10.6124 7.82083 10.7399 7.54167 10.7399C6.79833 10.7399 4.99417 8.0641 3.925 5.0016C3.70917 4.40743 3.49833 4.16743 2.9375 4.16743H0.75C0.125833 4.16743 0 4.45493 0 4.7766C0 5.34493 0.743333 8.17076 3.45667 11.9041C5.265 14.4524 7.81167 15.8333 10.1283 15.8333C11.5208 15.8333 11.6908 15.5266 11.6908 14.9991C11.6908 12.5641 11.565 12.3341 12.2625 12.3341C12.5858 12.3341 13.1425 12.4941 14.4425 13.7233C15.9283 15.1808 16.1725 15.8333 17.0042 15.8333H19.1908C19.8142 15.8333 20.13 15.5266 19.9483 14.9216C19.5325 13.6491 16.7225 11.0316 16.5958 10.8566Z" fill="#B2B3B3"/>
</g>
<defs>
<clipPath id="clip0_1_599">
<rect width="20" height="20" fill="white"/>
</clipPath>
</defs>
</svg>
