<svg width="25" height="25" viewBox="0 0 25 25" fill="none" xmlns="http://www.w3.org/2000/svg">
<g clip-path="url(#clip0_1_382)">
<path d="M22.0345 17.312C25.9896 13.3568 25.9896 6.92112 22.0345 2.96592C18.0793 -0.989289 11.6437 -0.989289 7.68854 2.96592C4.33309 6.32137 3.8249 11.3118 6.1627 15.2088C6.1627 15.2088 6.33062 15.4903 6.10383 15.7171C4.8101 17.0108 0.928424 20.8926 0.928424 20.8926C-0.101713 21.9226 -0.347025 23.363 0.566495 24.2767L0.723782 24.4338C1.63738 25.3475 3.07785 25.1024 4.10791 24.0722C4.10791 24.0722 7.98137 20.1987 9.2726 18.9076C9.51018 18.67 9.79182 18.8379 9.79182 18.8379C13.6886 21.1755 18.6791 20.6674 22.0345 17.312ZM9.56149 15.4391C6.63899 12.5166 6.63907 7.76143 9.56149 4.83894C12.484 1.91653 17.2391 1.91645 20.1616 4.83894C23.0841 7.76135 23.0841 12.5166 20.1616 15.4391C17.2391 18.3615 12.4839 18.3615 9.56149 15.4391Z" fill="#286C2F"/>
<path d="M14.8918 6.63818C11.8299 6.63818 9.34766 9.69211 9.34766 10.191C9.34766 10.6752 11.8298 13.7438 14.8918 13.7438C17.9538 13.7438 20.436 10.6891 20.436 10.191C20.436 9.6938 17.9539 6.63818 14.8918 6.63818ZM14.8918 12.7195C13.4953 12.7195 12.3632 11.5874 12.3632 10.1909C12.3632 8.79453 13.4953 7.66236 14.8918 7.66236C16.2883 7.66236 17.4203 8.79445 17.4203 10.1909C17.4203 11.5874 16.2883 12.7195 14.8918 12.7195Z" fill="#286C2F"/>
<path d="M14.8916 11.479C15.603 11.479 16.1797 10.9023 16.1797 10.1909C16.1797 9.47953 15.603 8.90283 14.8916 8.90283C14.1802 8.90283 13.6035 9.47953 13.6035 10.1909C13.6035 10.9023 14.1802 11.479 14.8916 11.479Z" fill="#286C2F"/>
</g>
<defs>
<clipPath id="clip0_1_382">
<rect width="25" height="25" fill="white"/>
</clipPath>
</defs>
</svg>
