<svg width="20" height="16" viewBox="0 0 20 16" fill="none" xmlns="http://www.w3.org/2000/svg">
<path d="M18.3333 8.66675C18.8856 8.66675 19.3333 8.21903 19.3333 7.66675C19.3333 7.11446 18.8856 6.66675 18.3333 6.66675L18.3333 8.66675ZM0.959539 6.95964C0.569016 7.35016 0.569015 7.98333 0.959539 8.37385L7.3235 14.7378C7.71402 15.1283 8.34719 15.1283 8.73771 14.7378C9.12824 14.3473 9.12824 13.7141 8.73771 13.3236L3.08086 7.66675L8.73772 2.00989C9.12824 1.61937 9.12824 0.986204 8.73772 0.595679C8.34719 0.205155 7.71403 0.205155 7.3235 0.595679L0.959539 6.95964ZM18.3333 6.66675L1.66665 6.66675L1.66665 8.66675L18.3333 8.66675L18.3333 6.66675Z" fill="#286C2F"/>
</svg>
