<svg width="20" height="16" viewBox="0 0 20 16" fill="none" xmlns="http://www.w3.org/2000/svg">
<path d="M1.6665 7.33337C1.11422 7.33337 0.666504 7.78109 0.666504 8.33337C0.666504 8.88566 1.11422 9.33337 1.6665 9.33337V7.33337ZM19.0403 9.04048C19.4308 8.64996 19.4308 8.01679 19.0403 7.62627L12.6763 1.26231C12.2858 0.871782 11.6526 0.871782 11.2621 1.26231C10.8716 1.65283 10.8716 2.286 11.2621 2.67652L16.919 8.33337L11.2621 13.9902C10.8716 14.3808 10.8716 15.0139 11.2621 15.4044C11.6526 15.795 12.2858 15.795 12.6763 15.4044L19.0403 9.04048ZM1.6665 9.33337H18.3332V7.33337H1.6665V9.33337Z" fill="white"/>
</svg>
