<svg width="16" height="16" viewBox="0 0 16 16" fill="none" xmlns="http://www.w3.org/2000/svg">
<path d="M15.7996 7.81261C16.0896 7.49363 16.0616 7.00472 15.737 6.72089L8.58642 0.464065C8.26185 0.180233 7.74149 0.186179 7.42376 0.477469L0.248845 7.05448C-0.0688875 7.34577 -0.0844821 7.83405 0.214318 8.14464L0.394204 8.33198C0.692639 8.64257 1.17503 8.6796 1.47096 8.41444L2.00717 7.93424V14.9644C2.00717 15.3958 2.35667 15.7449 2.78768 15.7449H5.58449C6.0155 15.7449 6.365 15.3958 6.365 14.9644V10.0461H9.93235V14.9644C9.92614 15.3954 10.2345 15.7446 10.6656 15.7446H13.6295C14.0605 15.7446 14.41 15.3954 14.41 14.9641V8.03323C14.41 8.03323 14.5581 8.163 14.7408 8.32358C14.9232 8.48386 15.3063 8.35535 15.5963 8.03605L15.7996 7.81261Z" fill="#286C2F"/>
</svg>
