<svg width="21" height="21" viewBox="0 0 21 21" fill="none" xmlns="http://www.w3.org/2000/svg">
<g clip-path="url(#clip0_1_462)">
<path d="M20.7592 19.5991L14.8344 13.6743C17.5338 10.39 17.3502 5.51452 14.2827 2.44713C11.0196 -0.816034 5.71004 -0.816034 2.44688 2.44713C-0.816279 5.71029 -0.816279 11.0198 2.44688 14.283C5.51346 17.3495 10.3883 17.5352 13.6741 14.8347L19.5989 20.7594C19.9193 21.0799 20.4388 21.0799 20.7592 20.7594C21.0796 20.439 21.0796 19.9195 20.7592 19.5991ZM13.1224 13.1226C10.4991 15.746 6.23057 15.7459 3.60722 13.1226C0.983856 10.4993 0.983856 6.23078 3.60722 3.60742C6.23049 0.984182 10.499 0.983977 13.1224 3.60742C15.7458 6.23078 15.7458 10.4993 13.1224 13.1226Z" fill="#286C2F"/>
<path d="M12.3828 7.54483H9.18602V4.34807C9.18602 3.89492 8.81868 3.52759 8.36554 3.52759C7.9124 3.52759 7.54507 3.89492 7.54507 4.34807V7.54483H4.34831C3.89517 7.54483 3.52783 7.91216 3.52783 8.3653C3.52783 8.81844 3.89517 9.18578 4.34831 9.18578H7.54507V12.3825C7.54507 12.8357 7.9124 13.203 8.36554 13.203C8.81868 13.203 9.18602 12.8357 9.18602 12.3825V9.18578H12.3828C12.8359 9.18578 13.2033 8.81844 13.2033 8.3653C13.2033 7.91216 12.8359 7.54483 12.3828 7.54483Z" fill="#286C2F"/>
</g>
<defs>
<clipPath id="clip0_1_462">
<rect width="21" height="21" fill="white"/>
</clipPath>
</defs>
</svg>
