<svg width="16" height="12" viewBox="0 0 16 12" fill="none" xmlns="http://www.w3.org/2000/svg">
<path d="M15.9881 1.20721C15.9881 1.18796 16.0007 1.16923 15.9998 1.15021L11.1172 6.10239L15.994 10.8964C15.9968 10.8621 15.9881 10.8276 15.9881 10.7926V1.20721Z" fill="#286C2F"/>
<path d="M10.3722 6.8645L8.37899 8.88313C8.27812 8.98528 8.14786 9.0365 8.01752 9.0365C7.88989 9.0365 7.76226 8.98747 7.66209 8.88921L5.67427 6.93943L0.765625 11.9197C0.88498 11.9649 1.01309 11.9999 1.14726 11.9999H14.8878C15.0871 11.9999 15.2739 11.936 15.4364 11.8408L10.3722 6.8645Z" fill="#286C2F"/>
<path d="M8.0112 7.73209L15.4628 0.176414C15.2941 0.0708292 15.0977 0 14.8872 0H1.14664C0.872547 0 0.621393 0.112024 0.425781 0.282878L8.0112 7.73209Z" fill="#286C2F"/>
<path d="M0 1.39151V10.7928C0 10.9007 0.0235652 11.0047 0.0491463 11.1042L4.8969 6.19033L0 1.39151Z" fill="#286C2F"/>
</svg>
