<svg width="16" height="16" viewBox="0 0 16 16" fill="none" xmlns="http://www.w3.org/2000/svg">
<path d="M13.7856 11.136C12.8191 10.3093 11.8381 9.80858 10.8835 10.634L10.3134 11.1329C9.89629 11.4951 9.1208 13.1872 6.12248 9.73802C3.12478 6.29326 4.90866 5.75691 5.32638 5.39788L5.89957 4.89837C6.84927 4.07105 6.49087 3.02957 5.80591 1.95749L5.39257 1.30813C4.70449 0.238547 3.95522 -0.463892 3.00302 0.362176L2.48853 0.811737C2.06769 1.11831 0.891336 2.11484 0.605989 4.00799C0.262575 6.27952 1.34589 8.88073 3.82784 11.7348C6.30667 14.5902 8.73368 16.0244 11.0327 15.9994C12.9433 15.9788 14.0972 14.9536 14.4581 14.5808L14.9745 14.1306C15.9242 13.3052 15.3341 12.4647 14.3669 11.6362L13.7856 11.136Z" fill="#286C2F"/>
</svg>
